<svg width="17" height="19" viewBox="0 0 17 19" fill="none" xmlns="http://www.w3.org/2000/svg">
<path d="M14.0209 3.58697L14.6048 3.00306L15.2722 3.67041L16.4401 2.50255L13.9375 0L12.7696 1.16787L13.437 1.83519L12.6862 2.58595C8.68216 0.16681 3.51022 1.41808 1.17453 5.42216C-1.16117 9.42623 0.0900633 14.4313 4.01073 16.8505C7.9314 19.2696 13.1033 18.0183 15.439 14.0143C17.5245 10.5941 16.9406 6.25637 14.0209 3.58697ZM8.34846 15.5158C5.09516 15.5158 2.5092 12.9298 2.5092 9.67652C2.5092 6.42321 5.09516 3.83722 8.34846 3.83722V9.67649H14.1877C14.1878 12.9298 11.6018 15.5158 8.34846 15.5158Z" fill="#262626"/>
</svg>
