<svg width="38" height="38" viewBox="0 0 38 38" fill="none" xmlns="http://www.w3.org/2000/svg">
<path fill-rule="evenodd" clip-rule="evenodd" d="M19.0006 3.92395C23.4037 3.92395 27.974 4.29986 32.6128 5.10048C32.6821 6.96011 32.7606 9.83459 32.6286 12.2738C32.333 17.7121 31.1361 21.9332 28.8606 25.5579C26.5923 29.1721 23.0798 32.2798 19.0006 34.1254C14.9214 32.2798 11.4086 29.1721 9.14028 25.5579C6.86511 21.9332 5.6679 17.7121 5.37256 12.2738C5.23995 9.83459 5.31883 6.96011 5.38809 5.10048C10.0269 4.29986 14.5975 3.92395 19.0006 3.92395ZM19.0006 4.44785C14.6599 4.44785 10.253 4.81692 5.89585 5.54541C5.8002 8.30423 5.8002 10.4993 5.89523 12.2455C6.1853 17.5912 7.35735 21.733 9.58346 25.2794C11.8092 28.8254 15.1468 31.7546 19.0006 33.5493C22.854 31.7546 26.192 28.8254 28.4177 25.2794C30.6438 21.733 31.8156 17.5912 32.106 12.2455C32.201 10.4993 32.201 8.30423 32.1053 5.54541C27.7482 4.81692 23.341 4.44785 19.0006 4.44785ZM18.9626 20.3286C18.9626 20.3286 19.0484 20.8375 19.0745 20.9852C19.089 21.0689 19.0922 21.0913 19.071 21.1733C19.0025 21.4373 18.6861 22.8285 18.4328 24.2527L18.3933 24.4776C18.2898 25.0775 18.2004 25.6729 18.1484 26.1823C18.1189 26.4718 18.1285 26.5411 18.2049 26.7979C18.4213 27.5236 19.222 29.4196 19.3757 29.7654C19.3928 29.8036 19.403 29.8437 19.408 29.8851L19.4658 30.3322C19.2092 29.9445 17.8154 27.3803 17.2679 25.9603C17.2033 25.793 17.1909 25.7106 17.2623 25.4031C17.6431 23.7717 18.6732 20.9995 18.9626 20.3286ZM16.93 16.3876C16.93 16.3876 17.0371 16.7349 17.1404 17.112L17.1765 17.2458C17.2418 17.4915 17.3 17.7341 17.321 17.8875C17.3412 18.0352 17.3378 18.075 17.2853 18.2165C17.158 18.5553 16.9238 19.1004 16.674 19.6577L16.5662 19.8967C16.2597 20.5727 15.9494 21.2258 15.7987 21.5085C15.7244 21.6478 15.6546 21.7386 15.5148 21.8807C15.1959 22.2056 14.5853 22.8197 14.2073 23.1632C14.0701 23.2882 14.0331 23.3949 14.0052 23.5566C13.9601 23.8162 13.9154 24.2592 13.903 24.4881C13.8921 24.6893 13.9247 24.7835 14.0368 24.9828C14.703 26.172 16.9269 28.9082 17.5605 29.4827C17.6064 29.5244 17.64 29.5524 17.7369 29.6168C17.83 29.6789 18.1338 29.8761 18.1338 29.8761C18.1459 29.8845 18.1561 29.8956 18.1639 29.9084L18.2738 30.1021C18.2738 30.1021 18.2636 30.097 18.245 30.0878L18.1975 30.0642C18.1594 30.0452 18.1089 30.02 18.0509 29.991L17.9097 29.9203C17.6933 29.8116 17.4352 29.6808 17.2996 29.6077C17.2437 29.5776 17.1912 29.5421 17.1425 29.5014C16.4005 28.8845 14.1269 26.2215 13.4583 25.1096C13.2915 24.832 13.2744 24.7421 13.2968 24.4794C13.3387 23.9903 13.4036 23.3753 13.4604 23.1057C13.4949 22.9431 13.5306 22.8477 13.6552 22.704C14.0737 22.2218 14.5841 21.5853 15.0815 20.9321L15.2564 20.7012C16.0102 19.6992 16.7046 18.6963 16.9639 18.1854C17.0232 18.0691 17.0282 18.0287 17.0294 17.9189C17.0328 17.6005 16.9313 16.9806 16.9046 16.8238C16.9005 16.7993 16.8993 16.7744 16.9015 16.7495L16.93 16.3876ZM23.1352 15.7901L23.3274 15.8737C23.3842 15.8983 23.4361 15.9343 23.479 15.9791C24.6575 17.2104 25.6001 18.487 25.7889 18.8234C25.8252 18.8881 25.8501 18.9528 25.8591 19.0268C26.0709 20.8223 25.8889 22.7246 25.4563 24.3793C25.4172 24.5285 25.3734 24.605 25.2299 24.7129C24.768 25.0607 24.0786 25.6151 23.3929 26.1805L23.1768 26.3591C22.3509 27.0436 21.5662 27.7137 21.2333 28.0221C21.1497 28.0998 21.0768 28.1875 21.0171 28.2848C20.861 28.5388 20.6226 28.976 20.5055 29.193L20.4728 29.2537C20.4494 29.2974 20.4358 29.323 20.4358 29.323C20.2805 28.9837 19.942 28.1561 19.8258 27.8215C19.7879 27.7124 19.7811 27.6552 19.8212 27.509C20.0106 26.8154 20.906 24.7987 21.0802 24.434L21.0805 24.5833C21.0805 24.605 21.0771 24.6265 21.0702 24.647C20.9917 24.8855 20.5103 26.4749 20.4125 27.1642C20.3907 27.3175 20.3926 27.3589 20.4125 27.5093C20.4553 27.8312 20.6476 28.4213 20.6476 28.4213C20.6476 28.4213 20.7615 28.1831 20.8678 28.0221C20.9199 27.9431 20.9513 27.9052 21.0364 27.8206C21.4668 27.3944 22.2012 26.7357 22.966 26.0733L23.2368 25.8398C23.8243 25.335 24.4109 24.8438 24.8743 24.4685C24.9948 24.3709 25.0398 24.3056 25.0665 24.1203C25.1995 23.2074 25.238 21.5689 25.1578 20.3765C25.1426 20.1514 25.0696 19.9337 24.9429 19.7469C24.6523 19.3169 24.3047 18.9099 23.7777 18.3872C23.7026 18.3123 23.6513 18.2165 23.6321 18.112C23.4783 17.2912 23.1352 15.7901 23.1352 15.7901ZM13.1686 17.6892C13.2419 17.6655 13.3198 17.6627 13.3944 17.6808C13.7304 17.7616 14.4416 17.936 14.9791 18.0738C15.0546 18.0931 15.1487 18.1636 15.1888 18.2305L15.3059 18.4254C15.3468 18.4938 15.3496 18.5778 15.3133 18.6487C15.2156 18.8383 15.0762 19.0951 14.9289 19.3599L14.8174 19.559C14.6122 19.9235 14.4079 20.2751 14.2919 20.4601C14.2155 20.5823 14.1729 20.6364 14.0369 20.6846C13.508 20.8708 12.8512 21.0935 12.4608 21.22C12.381 21.2458 12.354 21.2943 12.3695 21.3829C12.3974 21.5443 12.4875 22.0921 12.522 22.252C12.5347 22.311 12.5819 22.358 12.6695 22.3412C12.9002 22.2974 13.5145 22.1469 13.5145 22.1469C13.5145 22.1469 13.3335 22.3145 13.2251 22.4133C13.2052 22.432 13.1822 22.4457 13.1565 22.4541C12.9891 22.51 12.5804 22.6248 12.453 22.6527C12.3537 22.6742 12.2903 22.635 12.2648 22.5225C12.2648 22.5225 12.0906 21.78 12.0276 21.5275C12.0176 21.489 12.0077 21.4557 11.9956 21.4178C11.9484 21.2716 11.835 20.9843 11.771 20.8338C11.7636 20.8164 11.7599 20.7978 11.7602 20.7785C11.762 20.6066 11.7937 20.2229 11.7937 20.2229C11.7937 20.2229 12.1698 20.5758 12.3518 20.7033C12.3928 20.7322 12.4173 20.7381 12.4676 20.7253C12.7176 20.661 13.2925 20.4707 13.608 20.3525C13.6801 20.3255 13.7431 20.2801 13.7922 20.2207C14.1186 19.8261 14.5279 19.2124 14.7642 18.7494C14.7968 18.6857 14.8031 18.6126 14.7826 18.5442L14.7316 18.3763C14.7167 18.3272 14.6649 18.2718 14.617 18.2535C14.0608 18.0418 13.6223 17.8844 13.1071 17.7088L13.1686 17.6892ZM24.1689 12.9104C24.2912 12.8653 24.4254 12.8684 24.5456 12.9191C25.4779 13.3109 27.0456 14.2324 27.917 14.8816C28.0012 14.9444 28.0347 14.9877 28.0568 15.089C28.2614 16.0205 28.3391 17.4604 28.2102 18.6727C28.2009 18.7598 28.1835 18.812 28.1381 18.905C27.586 20.0352 26.9645 21.0988 26.3105 21.9194L26.3118 21.9059C26.3203 21.8186 26.3673 21.3259 26.3698 21.0594C26.3701 21.0292 26.3841 21.0015 26.408 20.9832C26.5294 20.8887 26.6962 20.7543 26.7906 20.6726C26.8366 20.6328 26.8621 20.6029 26.886 20.5644C27.1524 20.1334 27.6288 19.2311 27.8208 18.6883C27.8676 18.5558 27.8863 18.4156 27.8748 18.2754C27.8133 17.5189 27.6947 16.4708 27.518 15.7867C27.4878 15.6701 27.4108 15.5716 27.3037 15.5165C27.1512 15.4382 26.8521 15.3017 26.1711 15.0284C26.0766 14.9905 25.9884 14.9379 25.9108 14.8726C25.4642 14.497 24.7661 13.9339 24.3316 13.61C24.2046 13.5151 24.0425 13.4806 23.8878 13.5158C23.5713 13.5876 23.1685 13.6877 22.9418 13.7493C22.8648 13.7701 22.8344 13.772 22.7549 13.7626C22.7135 13.7578 22.66 13.7526 22.6037 13.7475L22.5186 13.74C22.4196 13.7315 22.3267 13.7243 22.2903 13.7216L22.2741 13.7203C23.013 13.373 23.7238 13.0733 24.1689 12.9104ZM14.3116 19.0249C14.0805 19.4054 13.8044 19.8096 13.5957 20.0621C13.5684 20.0951 13.5321 20.1206 13.4908 20.1361C13.2625 20.2216 12.8821 20.3503 12.602 20.4358L14.3116 19.0249ZM11.2578 18.5252L11.1215 19.467L10.6578 18.9223C10.7423 18.7391 10.9892 18.5663 11.2578 18.5252ZM13.7553 13.1933L13.6286 13.3493C13.6215 13.3562 13.6147 13.3627 13.6075 13.3699C13.496 13.4523 13.0268 13.812 12.8998 13.9127C12.8637 13.9413 12.8494 13.9662 12.8411 14.0113C12.8125 14.1705 12.765 14.473 12.751 14.6406C12.747 14.6897 12.7258 14.714 12.6758 14.7342C12.4581 14.8228 12.2001 14.9161 11.9914 14.9997C11.9466 15.0174 11.9342 15.0243 11.9078 15.0445C11.887 15.0607 11.6097 15.3085 11.6097 15.3085C11.6097 15.3085 12.2125 15.1599 12.4336 15.1098C12.4864 15.098 12.5091 15.1011 12.5578 15.1241C12.6035 15.1452 12.6796 15.1754 12.7196 15.19C12.7811 15.2127 12.8137 15.2118 12.8817 15.1968C13.1308 15.1412 13.5498 15.0417 13.7727 14.9836C13.8886 14.9534 13.9519 14.922 14.0501 14.8533C14.1569 14.779 14.4274 14.5759 14.4274 14.5759C14.4274 14.5759 14.4224 14.6117 14.4187 14.6316C14.4159 14.6487 14.4097 14.6583 14.3985 14.6717C14.3435 14.7379 14.2473 14.8458 14.1994 14.8953C14.0898 15.0087 14.0243 15.0492 13.8867 15.1067C13.2532 15.371 12.1706 15.7814 11.3584 16.0628C11.3053 16.0814 11.2823 16.0967 11.2429 16.1371C11.2 16.1806 11.1429 16.244 11.1429 16.244C11.1429 16.244 11.805 16.2922 12.0072 16.3155C12.0727 16.323 12.1196 16.3445 12.1696 16.3877C12.3358 16.5307 12.8858 17.0975 13.0504 17.2943C13.0504 17.2943 11.4867 17.5546 10.7622 17.7346C10.6727 17.7567 10.628 17.8136 10.6078 17.8854C10.5479 18.0962 10.4066 18.774 10.4066 18.774C10.4066 18.774 10.3563 18.7578 10.2861 18.7174C10.2379 18.6898 10.2134 18.6667 10.1606 18.6108C9.98917 18.4295 9.70749 18.0825 9.57209 17.8814C9.53234 17.822 9.51557 17.7464 9.56526 17.6858C9.71215 17.5048 10.0072 17.1746 10.1699 17.0049C10.1873 16.9865 10.2094 16.9545 10.2327 16.9085C10.2874 16.7996 10.3596 16.5238 10.3847 16.4243L10.3928 16.3921L10.3938 16.3877C10.3938 16.3877 10.3923 16.3887 10.3895 16.3904L10.3598 16.4091C10.3195 16.4345 10.2544 16.4755 10.2264 16.4931C10.1845 16.5198 10.173 16.5313 10.1556 16.568C10.1292 16.6234 10.083 16.7107 10.0479 16.7714C10.0364 16.7913 10.0056 16.822 9.98917 16.8348C9.78141 16.9937 9.5519 17.1644 9.38855 17.2794C9.37737 17.2872 9.36308 17.2838 9.35345 17.2744C9.33265 17.2536 9.24538 17.1544 9.22985 17.1311C9.21681 17.1115 9.21089 17.0932 9.21089 17.0695C9.2106 17.0282 9.21463 16.9554 9.21867 16.9013C9.22364 16.8373 9.24196 16.8068 9.31991 16.726C9.40718 16.6355 9.50221 16.5403 9.60221 16.4427C9.84725 16.2363 10.4659 15.7338 11.5705 14.9447C11.5914 14.9298 11.6103 14.9124 11.6255 14.8915C11.7417 14.7348 12.0712 14.307 12.1525 14.2053C12.164 14.191 12.1768 14.1776 12.1914 14.1661C12.3215 14.0632 12.3858 14.0188 12.5178 13.9354C12.8255 13.7414 13.4215 13.3876 13.7553 13.1933ZM20.4884 12.8433C20.5346 12.8352 20.5822 12.8418 20.6247 12.862L20.9474 13.0165C20.9791 13.0317 21.0024 13.0607 21.0107 13.0955C21.0545 13.2802 21.1083 13.5249 21.1443 13.7329C21.1589 13.8193 21.1427 13.9076 21.0989 13.9838C20.9654 14.216 20.6912 14.6339 20.5378 14.8584C20.5036 14.9088 20.4996 14.9697 20.5101 15.0297C20.5797 15.4147 20.8697 16.7588 20.8697 16.7588L20.6871 16.5924C20.6508 16.5588 20.6269 16.5234 20.6114 16.4771C20.4815 16.0968 20.2387 15.3024 20.1269 14.9159C20.1089 14.8522 20.1225 14.7841 20.1645 14.7334C20.3548 14.5021 20.6322 14.1321 20.7943 13.8977C20.8396 13.8317 20.8545 13.759 20.8278 13.7046C20.7905 13.6281 20.7278 13.5118 20.6676 13.4064C20.6514 13.3772 20.6244 13.3554 20.5924 13.3448L20.3735 13.2746C20.3353 13.2624 20.2943 13.2631 20.2564 13.2767C19.7794 13.4499 19.1377 13.6996 18.7452 13.8625C18.6877 13.8865 18.6641 13.8883 18.5946 13.8778C18.4809 13.861 18.1498 13.8016 17.9874 13.7711C17.9582 13.7655 17.9436 13.7326 17.9585 13.7068L18.1511 13.3728C18.1772 13.3277 18.2203 13.2957 18.2713 13.2842C18.8905 13.1431 19.7095 12.9808 20.4884 12.8433ZM13.6358 14.3769C13.6653 14.3744 13.6932 14.3908 13.7047 14.4179C13.7435 14.5084 13.733 14.6094 13.6954 14.6959C13.6808 14.731 13.6358 14.7652 13.5988 14.7733L13.2898 14.842C13.2712 14.846 13.2541 14.8311 13.2553 14.8121L13.2842 14.449C13.2864 14.4244 13.3057 14.4048 13.3302 14.403L13.6358 14.3769ZM17.1518 12.0434C17.1875 12.0431 17.2099 12.0817 17.1922 12.1124L16.4388 13.4112C16.3969 13.4876 16.3267 13.5445 16.2434 13.5697L14.8307 14.0122C14.6667 14.0619 14.5282 14.0887 14.3574 14.1017C14.044 14.1253 13.1133 14.1546 13.1133 14.1546L13.1338 14.1104C13.1434 14.0896 13.1605 14.0731 13.1816 14.0641L13.622 13.8769C13.6549 13.8629 13.6838 13.8415 13.7058 13.8138L14.386 12.9756C14.4223 12.9308 14.4698 12.8879 14.5204 12.8611C14.9698 12.6245 15.7689 12.2691 16.3285 12.082C16.3813 12.0642 16.4524 12.0531 16.508 12.0524L17.1518 12.0434ZM16.3965 10.5353C17.9556 10.3981 20.0652 10.3608 22.0804 10.5135C22.195 10.5222 22.3065 10.5492 22.4124 10.594C23.0727 10.872 24.2441 11.4801 25.5466 12.226C25.6041 12.259 25.6581 12.2976 25.7078 12.3414C26.0528 12.6458 26.927 13.5413 26.927 13.5413L26.6544 13.4871C26.6162 13.4797 26.5805 13.4648 26.5482 13.443C25.9966 13.0721 25.1913 12.5892 24.5165 12.2487C24.4363 12.2086 24.3497 12.1828 24.2606 12.1735C23.9323 12.1384 23.4885 12.1076 23.1981 12.0958C23.055 12.0899 22.9575 12.0659 22.8174 11.9947C22.5497 11.8588 21.9012 11.5644 21.5783 11.441C21.4401 11.3881 21.3696 11.3757 21.2342 11.3779C20.6792 11.3859 19.4149 11.4264 18.7692 11.4665C18.7469 11.4677 18.7254 11.4668 18.7037 11.4634L18.3959 11.4152C19.2686 11.2647 21.4258 11.0722 22.3186 11.0253L21.9553 10.9037C21.8851 10.8804 21.8121 10.8679 21.7379 10.8661C21.5441 10.8614 21.113 10.8528 20.5535 10.8521L20.3624 10.8521C19.5149 10.8538 18.4245 10.8746 17.4189 10.9503C17.331 10.9569 17.2453 10.978 17.1646 11.0138C16.7583 11.1924 15.7678 11.7301 14.7744 12.2824L14.5538 12.4052C14.2969 12.5484 14.0428 12.691 13.8015 12.8267C13.8015 12.8267 13.9254 12.6672 13.9493 12.6362C13.9704 12.6091 13.977 12.6041 14.0055 12.5855C14.0455 12.5593 14.1817 12.4694 14.3192 12.3782L14.4209 12.3105C14.5034 12.2556 14.5771 12.2061 14.6186 12.1775C14.6391 12.1636 14.6521 12.1536 14.6779 12.1343C14.977 11.9086 15.449 11.5106 15.7304 11.2641C15.7941 11.2084 15.8481 11.1437 15.8925 11.0716C15.9835 10.9242 16.0829 10.7644 16.1441 10.6758C16.1962 10.599 16.2854 10.5452 16.3965 10.5353ZM9.75752 6.9491C10.1426 6.9093 10.3578 7.05917 10.3578 7.44938V7.66516C10.3578 8.06438 10.1426 8.22575 9.75752 8.26586C9.22491 8.32151 8.6923 8.38183 8.16062 8.44713V9.03695C8.04913 9.05063 7.93733 9.06431 7.82583 9.07861V7.17234C8.46901 7.09088 9.1128 7.01657 9.75752 6.9491ZM27.6308 6.88729C28.4798 6.97 29.3283 7.06514 30.1752 7.1721V7.4796C29.809 7.43327 29.4423 7.38912 29.0752 7.34746V8.94653C28.9637 8.93378 28.8522 8.92135 28.7401 8.90891V7.30983C28.3708 7.2691 28.0006 7.23086 27.6308 7.19479V6.88729ZM13.5257 6.63675V6.94394C12.8272 6.98716 12.1291 7.03846 11.4316 7.09785V7.56734C12.0521 7.51417 12.6729 7.46785 13.294 7.42805V7.73555C12.6729 7.77535 12.0521 7.82167 11.4316 7.87453V8.38973C12.1291 8.33003 12.8272 8.27873 13.5257 8.23582V8.54302C12.7179 8.59276 11.9108 8.6537 11.1039 8.72553V6.81895C11.9108 6.74713 12.7179 6.6865 13.5257 6.63675ZM24.3888 7.15894C24.3888 6.73142 24.6006 6.64343 25.078 6.67577C25.4972 6.70469 25.9159 6.73609 26.3348 6.77091C26.7494 6.80511 27.023 6.92171 27.023 7.35793V8.20924C27.023 8.63738 26.7867 8.71449 26.3348 8.67718C25.9159 8.64267 25.4972 8.61095 25.078 8.58235C24.6214 8.55157 24.3888 8.46326 24.3888 8.01025V7.15894ZM21.1406 6.494C21.9493 6.51328 22.7577 6.54375 23.5661 6.58542V6.89261C22.8674 6.85685 22.1683 6.82918 21.4689 6.8099V7.27908C22.091 7.2965 22.7127 7.32013 23.3341 7.35028V7.65779C22.7127 7.62763 22.091 7.60369 21.4689 7.58659V8.10147C22.1683 8.12075 22.8674 8.14842 23.5661 8.18449V8.49168C22.7577 8.45033 21.9493 8.41986 21.1406 8.40027V6.494ZM16.9326 6.49233V7.87127C16.9326 8.30749 16.7037 8.40325 16.2425 8.41756C15.841 8.42999 15.4394 8.44492 15.0378 8.46295C14.6099 8.48223 14.3484 8.40077 14.3484 7.9689V6.58996L14.6763 6.57317V8.01025C14.6763 8.09762 14.7512 8.16882 14.8506 8.16416C15.377 8.13959 15.9031 8.11969 16.4295 8.10446C16.5295 8.10166 16.5959 8.02517 16.5959 7.9378V6.50072C16.708 6.49761 16.8202 6.49481 16.9326 6.49233ZM24.8913 6.97084C24.7916 6.96399 24.7168 7.03395 24.7168 7.13376V8.07648C24.7168 8.16385 24.7916 8.25557 24.8913 8.26241C25.4351 8.29847 25.9783 8.33952 26.5215 8.38553C26.6084 8.39299 26.6954 8.31309 26.6954 8.22603V7.283C26.6954 7.18351 26.6084 7.10111 26.5215 7.09365C25.9783 7.04763 25.4351 7.00659 24.8913 6.97084ZM18.3828 6.47044C18.9856 6.46608 19.5884 6.46826 20.1909 6.47634V6.78354C19.5468 6.77514 18.9024 6.77328 18.258 6.77856C18.1707 6.77949 18.0834 6.85505 18.0834 6.94242V7.89757C18.0834 7.98494 18.1707 8.07138 18.258 8.07044C18.8359 8.06547 19.4136 8.0664 19.9915 8.07293V7.55773C19.6561 7.554 19.3207 7.55214 18.9856 7.55245V7.24494C19.4303 7.24494 19.875 7.24836 20.3198 7.25489V8.38448C19.6949 8.37515 19.0701 8.37266 18.4452 8.37639C17.9878 8.3795 17.7552 8.30053 17.7552 7.85591V7.02512C17.7552 6.61004 17.9629 6.47355 18.3828 6.47044ZM9.88282 7.24583L9.8569 7.24634C9.29106 7.3048 8.72553 7.36854 8.16062 7.43787V8.13962C8.72553 8.0706 9.29106 8.00655 9.8569 7.94841C9.94355 7.93908 10.0305 7.85979 10.0305 7.77678V7.39061C10.0305 7.30324 9.94355 7.23733 9.8569 7.24634L9.88282 7.24583Z" fill="black"/>
</svg>
