<svg width="38" height="38" viewBox="0 0 38 38" fill="none" xmlns="http://www.w3.org/2000/svg">
<path d="M17.9227 4.7545C17.5512 5.44864 12.5432 14.817 10.386 18.8421C10.3113 18.9812 10.317 19.0819 10.3901 19.2182C12.5035 23.1622 16.7869 31.1629 16.8311 31.2377C16.8754 31.1635 21.1587 23.1622 23.2722 19.2187C23.3453 19.0824 23.3516 18.9818 23.2762 18.8426C22.0668 16.5934 20.8654 14.3396 19.656 12.0904C19.5784 11.9467 19.5732 11.8391 19.6537 11.6942C19.9861 11.0949 20.3047 10.4882 20.6417 9.85905C20.6895 9.94014 23.8945 15.9229 25.4662 18.8541C25.5324 18.9772 25.5381 19.0692 25.4702 19.1963C22.983 23.8379 20.4997 28.4818 18.0193 33.1274C17.9532 33.2517 17.8859 33.308 17.7352 33.3057C17.121 33.2954 16.5062 33.2983 15.892 33.304C15.7781 33.3052 15.7178 33.2689 15.6643 33.1677C13.1712 28.4991 10.6759 23.8316 8.17767 19.1658C8.12591 19.0686 8.12131 18.9962 8.1748 18.8955C10.6736 14.2286 13.1684 9.56115 15.6672 4.8954C15.6988 4.83674 15.773 4.7614 15.8282 4.76082C16.5137 4.75105 17.1992 4.7545 17.9227 4.7545Z" fill="black"/>
<path d="M20.7637 7.6129C19.6204 9.74363 16.4689 15.6303 14.7511 18.8365C14.678 18.9734 14.6729 19.074 14.7476 19.2126C15.9571 21.4624 17.1584 23.7156 18.3679 25.9648C18.4455 26.1091 18.4495 26.2161 18.369 26.361C18.0366 26.9603 17.718 27.567 17.3804 28.1967C17.3356 28.1208 14.1311 22.1375 12.5559 19.2005C12.4898 19.0774 12.4846 18.9854 12.5525 18.8583C15.0392 14.2173 17.5225 9.5734 20.0029 4.92777C20.0696 4.80298 20.1374 4.74777 20.287 4.75007C20.9012 4.76042 21.5159 4.75755 22.1301 4.75179C22.2446 4.75064 22.3038 4.78803 22.3579 4.88867C24.8515 9.5573 27.3468 14.2248 29.8451 18.8905C29.8974 18.9877 29.9008 19.0608 29.8474 19.1608C27.3491 23.8266 24.8544 28.4941 22.3556 33.1598C22.3239 33.2185 22.2498 33.2933 22.1946 33.2938C21.509 33.303 20.8235 33.2996 20.1052 33.2996C20.1524 33.2076 25.1626 23.8306 27.6373 19.212C27.712 19.0728 27.7063 18.9722 27.6327 18.8359C25.5192 14.8919 21.2359 6.89115 21.1916 6.81697C21.1835 6.83077 21.0265 7.12234 20.7637 7.6129Z" fill="black"/>
</svg>
